# xmcd
#
# Track frame offsets: 
#        150
#        24357
#        46586
#        68430
#        86296
#        109024
#        125403
#        136805
#        155480
#        174709
#
# Disc length: 2641 seconds
#
# Revision: 7
# Processed by: cddbd v1.5.2PL0 Copyright (c) Steve Scherf et al.
# Submitted via: ExactAudioCopy v1.3
#
DISCID=6f0a4f0a
DTITLE=언니네 이발관 - 가장 보통의 존재
DYEAR=2008
DGENRE=Rock
TTITLE0=가장 보통의 존재
TTITLE1=너는 악마가 되어가고 있는가?
TTITLE2=아름다운 것
TTITLE3=작은마음
TTITLE4=의외의 사실
TTITLE5=알리바이
TTITLE6=100년 동안의 진심
TTITLE7=인생은 금물
TTITLE8=나는
TTITLE9=산들산들
EXTD=YEAR: 2008
EXTT0=
EXTT1=
EXTT2=
EXTT3=
EXTT4=
EXTT5=
EXTT6=
EXTT7=
EXTT8=
EXTT9=
PLAYORDER=
